# xmcd
#
# Track frame offsets:
#	150
#	15592
#	29952
#	44760
#	59420
#	73997
#	88920
#	104715
#	118494
#	134032
#	149015
#	163652
#	178427
#	192555
#	206483
#	221074
#	233820
#
# Disc length: 3319 seconds
#
# Revision: 0
# Processed by: cddbd v1.5.2PL0 Copyright (c) Steve Scherf et al.
# Submitted via: EasyCDDAExtractor 16.0.8.2
#
DISCID=2e0cf511
DTITLE=Παπασιδέρης Γιώργος - Ο αμάραντος-Γ. Παπασιδέρης 1
DYEAR=2015
DGENRE=Παραδοσιακή
TTITLE0=Πουλάκι ξένο [Γ. Παπασιδέρης]
TTITLE1=Σαράντα παλληκάρια [παρ. διασκ. ίδιος κ Π.Τούντας]
TTITLE2=Παπάκι πάει στην ποταμιά [παραδοσιακό]
TTITLE3=Μάς πήρε το ποτάμι [παρ. διασκ. ίδιος κ Δ.Σέμσης]
TTITLE4=Πουλιά μου διαβατάρικα [παρ. διασκ. ίδιος κ Δ.Σέμσης]
TTITLE5=Ο Λεπενιώτης [διασκ. ιδίου]
TTITLE6=Το μαργιόλικο [παραδοσιακό]
TTITLE7=Παναγιούλα μου [παραδοσιακό]
TTITLE8=Ματζουράνα [παραδοσιακό]
TTITLE9=Κόρη που πας στον ποταμό [παραδοσιακό]
TTITLE10=Δυό μαύρα μάτια αγαπώ [Δ. Σέμσης-Κ. Κοφινιώτης]
TTITLE11=Κει ψηλά στα μπαλκονάκια [Γ.Παπασιδέρης,κλ.Ν.Καρακώστας]
TTITLE12=Στης Αρκαδίας τον πλάτανο [παραδοσιακό]
TTITLE13=Στό 'πα και στο παρήγγειλα [παραδοσιακό]
TTITLE14=Τού Κίτσου η μάνα [παραδοσιακό]
TTITLE15=Βασιλική προστάζει [παραδοσιακό]
TTITLE16=Νά 'μουν πουλί να πέταγα [Γ. Παπασιδέρης]
EXTD=
EXTT0=
EXTT1=
EXTT2=
EXTT3=
EXTT4=
EXTT5=
EXTT6=
EXTT7=
EXTT8=
EXTT9=
EXTT10=
EXTT11=
EXTT12=
EXTT13=
EXTT14=
EXTT15=
EXTT16=
PLAYORDER=
